<?xml version="1.0" standalone="no"?>
<!DOCTYPE svg PUBLIC "-//W3C//DTD SVG 20010904//EN"
 "http://www.w3.org/TR/2001/REC-SVG-20010904/DTD/svg10.dtd">
<svg version="1.0" xmlns="http://www.w3.org/2000/svg" overflow="visible"
 width="250.000000pt" height="250.000000pt" viewBox="-5 -5 250.000000 250.000000"
 preserveAspectRatio="xMidYMid meet">

<g transform="translate(0.000000,225.000000) scale(0.100000,-0.100000)"
fill="#f0f5ff" stroke="#011640" stroke-width="80">
<path d="M1081 2233 c-20 -18 -381 -652 -381 -671 0 -5 50 -94 110 -198 l110
-188 0 -437 0 -437 65 -48 65 -48 0 -78 c0 -70 3 -82 25 -103 31 -32 69 -32
100 0 22 21 25 33 25 103 l0 78 65 48 65 48 0 437 0 437 110 188 c61 104 110
193 110 198 0 17 -354 642 -377 666 -26 26 -63 28 -92 5z m162 -504 c118 -59
154 -154 75 -195 -34 -17 -62 -11 -98 21 -68 61 -124 61 -193 -3 -57 -54 -137
-22 -137 53 0 25 9 41 39 68 96 87 212 107 314 56z"/>
<path d="M461 1147 c-78 -140 -147 -262 -154 -271 -10 -13 -12 7 -12 99 0 126
-8 146 -67 160 -22 6 -33 1 -58 -23 l-30 -30 0 -270 0 -269 67 -109 c36 -60
73 -121 82 -136 31 -53 44 -54 249 -24 103 15 195 30 205 32 16 5 17 34 17
420 l0 415 -72 122 c-39 67 -74 126 -78 130 -4 4 -71 -107 -149 -246z"/>
<path d="M1566 1271 l-76 -130 0 -415 c0 -386 1 -415 18 -420 9 -2 101 -17
204 -32 205 -30 218 -29 249 24 9 15 46 76 82 136 l67 109 0 269 0 270 -30 30
c-25 24 -36 29 -58 23 -58 -14 -67 -34 -67 -160 0 -63 -3 -111 -7 -107 -4 4
-72 124 -152 266 -81 143 -148 261 -150 263 -2 2 -38 -55 -80 -126z"/>
</g>
</svg>
