<svg id="eBvm4euqsDO1" xmlns="http://www.w3.org/2000/svg" xmlns:xlink="http://www.w3.org/1999/xlink" viewBox="0 0 300 300" shape-rendering="geometricPrecision" text-rendering="geometricPrecision" project-id="7021263e3e7c45558e0976d0d2ec1fa0" export-id="d88ddacc1079407ab3e4c1304a6b7972" cached="false"><path d="M55.617978,44.194757c0,0-32.017708,61.540771-31.460679,91.198522.722166,38.450106,47.191016,116.292113,47.191016,116.292113l137.07865-1.498128c0,0,16.120781-63.521928,18.726589-91.385771c2.678634-28.642577-1.498125-95.880149-1.498125-95.880149s-90.408871-15.910359-129.588016-18.726592c-12.103601-.870018-40.449435.000005-40.449435.000005Z" transform="translate(-5.862722-1.499325)" fill="#75331b" stroke="#521807" stroke-width="7"/><path d="M23.40824,135.393284c0,0,47.715356-63.838965,68.164794-91.198522" transform="translate(-5.862726-1.49933)" fill="none" stroke="#521807" stroke-width="7"/><path d="M36.891386,183.520599L135.76779,48.689139" transform="translate(-5.862726-1.49933)" fill="none" stroke="#521807" stroke-width="7"/><path d="M36.891386,183.520599L135.76779,48.689139" transform="translate(-5.862726-1.49933)" fill="none" stroke="#521807" stroke-width="7"/><path d="M55.617982,223.970037L175.468165,53.932584" transform="translate(-5.862726-1.499329)" fill="none" stroke="#521807" stroke-width="7"/><path d="M71.348319,250.187269L219.662921,62.921349" transform="translate(-5.862726-1.49933)" fill="none" stroke="#521807" stroke-width="7"/><path d="M135.76779,251.685397l89.887643-128.089891" transform="translate(-5.862725-1.49933)" fill="none" stroke="#521807" stroke-width="7"/><path d="M88.48154,59.07507C76.46829,77.09493,58.74289,98.61141,52.56992,119.188c-1.33445,4.44817-4.35981,9.10184,2.34206,10.92962c3.27411.89294,6.81575-.30007,9.36825-2.34206c5.76539-4.61231,8.17155-14.35863,12.491-20.29787c4.43278-6.09507,56.80449-53.86743,21.85925-53.86743-5.31533,0-7.23036,1.76555-10.92962,5.46481" transform="matrix(.64721 0 0 0.612378-.4806 14.360075)" fill="#9c4b2e" stroke-width="0.6"/><path d="M88.48154,59.07507C76.46829,77.09493,58.74289,98.61141,52.56992,119.188c-1.33445,4.44817-4.35981,9.10184,2.34206,10.92962c3.27411.89294,6.81575-.30007,9.36825-2.34206c5.76539-4.61231,8.17155-14.35863,12.491-20.29787c4.43278-6.09507,56.80449-53.86743,21.85925-53.86743-5.31533,0-7.23036,1.76555-10.92962,5.46481" transform="matrix(1.138436 0 0 1.171842 7.741639 14.270343)" fill="#9c4b2e" stroke-width="0.6"/><path d="M157.96272,91.08325c-17.92518,29.87531-43.2197,54.85772-60.89362,84.31424-2.43684,4.06139-16.39504,26.54297-9.36825,31.22749c5.15785,3.43857,24.7747-16.96783,28.10474-20.29787c6.10158-6.10158,103.11974-119.31662,42.93781-95.24386" transform="translate(-5.862726-1.49933)" fill="#9c4b2e" stroke-width="0.6"/><path d="M150.93653,165.24855c-4.70675,5.88344-56.38614,70.05273-37.47299,75.72668c31.48918,9.44676,76.03672-90.05921,38.25368-74.94599" transform="translate(-5.862726-1.49933)" fill="#9c4b2e" stroke-width="0.6"/><path d="M184.50609,197.25673c-4.94494,7.4174-10.36765,14.64586-15.61375,21.85925-2.68421,3.69078-16.39443,17.32225-16.39443,21.85925c0,7.87023,44.1637-1.22589,48.40262-5.46481c4.66262-4.66262,9.76967-40.6716,2.34206-42.15712-4.21158-.84232-12.04887,3.03432-16.39443,3.90344" transform="translate(-5.862725-1.49933)" fill="#9c4b2e" stroke-width="0.6"/><path d="M140.00691,47.36476c17.60057-7.04023,25.14618-31.57894,41.37643-40.59574c5.1844-2.88022,13.84471-1.56137,19.51718-1.56137c26.36766,0-12.46517,41.752894-21.180211,48.724934" transform="translate(-5.862726-1.499329)" fill="#75331b" stroke="#521807" stroke-width="7"/><path d="M222.75977,78.59225c20.81765,16.65413,18.08482-31.89846,24.20131-39.03437c3.00413-3.50482,13.45699,1.94777,16.39444,3.12275c1.98084.79234,10.58605.99295,11.71031,2.34206c2.77198,3.32638.4332,16.128.78069,20.29787c2.09199,25.10395,5.37272,58.56997-25.76268,64.79705-5.1134,1.02268-15.42154,3.48976-20.29787.78069-.3798-.211-7.80687-45.28128-7.80687-50.74468" transform="matrix(.998208 0.059839-.059839 0.998208 3.36344-22.959201)" fill="#75331b" stroke="#521807" stroke-width="7"/><path d="M225.10183,137.92449c3.09903,12.39612-1.13217,22.40674-3.12275,34.35025-.48778,2.9267-4.65895,6.73405-2.34206,8.58756c3.42749,2.74199,25.4805,5.6477,36.69231,15.61375c4.10327,3.64735,12.54945,18.10714,17.95581,14.05237c10.40036-7.80027,12.20539-36.0322,4.68412-46.06056-5.1533-6.87107-46.35498-24.20131-55.4288-24.20131" transform="matrix(1 0 0 1.189212-1.110607-36.183835)" fill="#75331b" stroke="#521807" stroke-width="7"/><path d="M221.97908,191.01124c9.7912,0,15.48667,9.8205,21.85925,15.61375c22.06156,20.05596,15.61375,34.09937,15.61375,61.6743c0,3.62495,2.59107,17.98106,1.56137,20.29787-.55185,1.24165-8.20098,4.93424-9.36825,5.46481-2.35898,1.07226-9.0182,4.80081-11.71031,3.90344-12.03691-4.0123-32.58658-38.97593-30.44681-50.74468c3.21249-17.66873,11.71031-35.9492,11.71031-53.86743" transform="translate(-5.862725-1.499329)" fill="#75331b" stroke="#521807" stroke-width="7"/><path d="M90.8236,252.68554c7.50537,9.38171,22.89764,36.77821,34.35025,40.59574c8.41077,2.80359,41.4029-33.45043,39.81506-40.59574-.94948-4.27267-4.3848-2.91957-7.02619-3.12275-21.22021-1.63233-46.18929-2.62859-67.13911,1.56137" transform="matrix(1 0 0 0.756772-2.601241 62.389324)" fill="#75331b" stroke="#521807" stroke-width="7"/><path d="M227.4439,203.50223c-2.55211,12.76056-11.36438,23.95353-12.491,37.47299-.73603,8.83232,15.13037,39.78725,26.54337,31.2275c14.78975-11.09231-2.72418-54.63716-10.92962-65.57774" transform="translate(-5.862725-1.49933)" fill="#9c4b2e" stroke-width="0.6"/><path d="M221.97908,89.52188c-14.45761,21.68641-28.90398,45.31697-40.59574,68.70049-2.24384,4.48769-19.10914,32.57005-14.05237,32.00818c11.03583-1.2262,49.55853-56.17925,54.64812-66.35843c5.42672-10.85345,0-20.80362,0-32.00818" transform="translate(-5.862726-1.49933)" fill="#5c2510" stroke-width="0.6"/><path d="M229.00527,195.69536c-11.33913-4.53565,12.33312,39.34143,14.83306,46.84124c1.07956,3.23867,7.2758,33.92891,10.92962,29.66612c11.2408-13.11426-9.00584-74.4051-27.32406-78.06874" transform="translate(-5.862726-1.49933)" fill="#5c2510" stroke-width="0.6"/><path d="M232.90871,137.92449c-1.25399,7.52392-10.74649,32.73298-6.2455,39.03437c4.69013,6.56619,24.67704,6.85677,32.00818,10.92962c2.53398,1.40777,12.49642,16.00138,13.27169,15.61375c3.20982-1.60491,1.2527-10.13091.78069-12.491-4.10887-20.54434-24.01595-35.72627-38.25368-49.96399" transform="translate(-5.862726-1.49933)" fill="#5c2510" stroke-width="0.6"/><path d="M250.86452,48.92613c0,1.30115.12947,2.60875,0,3.90344-.13203,1.32033-.45886,2.61614-.78069,3.90344-.3323,1.3292-2.05171,7.76169-3.12275,9.36825-.00001.00001-6.24549,6.24549-6.2455,6.2455-3.99575,3.99575-8.21478,1.96427-10.92962,3.90344-7.23629,5.16878-.36165,45.27987,8.58756,45.27987c4.35851,0,20.5153-3.63664,23.42062-7.02619.86354-1.00747.64865-2.58311.78069-3.90344.56229-5.62295-2.60557-69.22553-3.90344-71.04255-5.03879-7.0543-8.11808,7.02082-8.58756,9.36825" transform="translate(-5.862726-1.49933)" fill="#5c2510" stroke-width="0.6"/><path d="M161.08547,25.50551c-1.40409,3.51022-20.17238,19.70543-18.7365,21.85925c2.07924,3.11885,30.12352,7.92627,33.56956,5.46481c5.53285-3.95204-4.68413-10.43899-4.68413-14.83306c0-3.84962,6.36236-14.00098,5.46481-16.39443-2.30823-6.15528-13.09926,2.79826-15.61375,4.68412" transform="translate(-5.862726-1.499329)" fill="#5c2510" stroke-width="0.6"/><path d="M100.19185,254.24691c12.32871,12.32871,24.50109,13.83222,40.59574,12.491c2.23669-.18639,26.93446-2.18503,20.29787-10.14894-1.01336-1.21603-3.10771-.63738-4.68412-.78069-17.72354-1.61123-36.90185-2.34206-54.64812-2.34206" transform="translate(-5.862726-1.49933)" fill="#5c2510" stroke-width="0.6"/><path d="M122.0511,49.70682c-19.7437,32.90617-48.78428,59.90474-70.26186,92.12111-1.76611,2.64916-20.10199,25.88021-16.39443,28.10475c4.41571,2.64943,18.56442-19.95372,20.29787-23.42062c8.67225-17.3445,75.62849-87.53517,66.35843-96.80524" transform="matrix(.986866 0 0 1.033876-6.711223 0.555616)" fill="#5c2510" stroke-width="0.6"/><path d="M122.0511,49.70682c-19.7437,32.90617-48.78428,59.90474-70.26186,92.12111-1.76611,2.64916-20.10199,25.88021-16.39443,28.10475c4.41571,2.64943,18.56442-19.95372,20.29787-23.42062c8.67225-17.3445,75.62849-87.53517,66.35843-96.80524" transform="matrix(.729307 0 0 0.692811-.79037 10.143198)" fill="#5c2510" stroke-width="0.6"/><path d="M122.0511,49.70682c-19.7437,32.90617-48.78428,59.90474-70.26186,92.12111-1.76611,2.64916-20.10199,25.88021-16.39443,28.10475c4.41571,2.64943,18.56442-19.95372,20.29787-23.42062c8.67225-17.3445,75.62849-87.53517,66.35843-96.80524" transform="matrix(1.57229 0 0 1.534984 6.240101-17.859883)" fill="#5c2510" stroke-width="0.6"/></svg>
